<?xml version="1.0" standalone="no"?><!DOCTYPE svg PUBLIC "-//W3C//DTD SVG 1.1//EN" "http://www.w3.org/Graphics/SVG/1.1/DTD/svg11.dtd"><svg t="1575699007546" class="icon" viewBox="0 0 1024 1024" version="1.1" xmlns="http://www.w3.org/2000/svg" p-id="2294" xmlns:xlink="http://www.w3.org/1999/xlink" width="200" height="200"><defs><style type="text/css"></style></defs><path d="M870.4 51.2l-51.3024 0 0 51.2L870.4 102.4c27.136 0 52.8384 10.6496 72.2944 30.1056 19.456 19.456 30.1056 45.056 30.1056 72.2944l0 51.9168L51.2 256.7168 51.2 204.8c0-27.136 10.6496-52.8384 30.1056-72.2944 19.456-19.456 45.056-30.1056 72.2944-30.1056l51.0976 0L204.6976 51.2 153.6 51.2C69.12 51.2 0 120.32 0 204.8l0 51.9168 0 51.2L0 870.4c0 84.48 69.12 153.6 153.6 153.6l716.8 0c84.48 0 153.6-69.12 153.6-153.6L1024 307.9168l0-51.2L1024 204.8C1024 120.32 954.88 51.2 870.4 51.2zM972.8 870.4c0 27.136-10.6496 52.8384-30.1056 72.2944-19.456 19.456-45.056 30.1056-72.2944 30.1056L153.6 972.8c-27.136 0-52.8384-10.6496-72.2944-30.1056-19.456-19.456-30.1056-45.056-30.1056-72.2944L51.2 307.9168l921.6 0L972.8 870.4z" p-id="2295"></path><path d="M358.2976 51.2l307.2 0 0 51.2-307.2 0 0-51.2Z" p-id="2296"></path><path d="M255.8976 0l51.2 0 0 153.6-51.2 0 0-153.6Z" p-id="2297"></path><path d="M716.6976 0l51.2 0 0 153.6-51.2 0 0-153.6Z" p-id="2298"></path><path d="M205.1072 460.8l102.4 0 0 51.2-102.4 0 0-51.2Z" p-id="2299"></path><path d="M460.8 460.8l102.4 0 0 51.2-102.4 0 0-51.2Z" p-id="2300"></path><path d="M717.1072 460.8l102.4 0 0 51.2-102.4 0 0-51.2Z" p-id="2301"></path><path d="M205.1072 614.4l102.4 0 0 51.2-102.4 0 0-51.2Z" p-id="2302"></path><path d="M460.8 614.4l102.4 0 0 51.2-102.4 0 0-51.2Z" p-id="2303"></path><path d="M717.1072 614.4l102.4 0 0 51.2-102.4 0 0-51.2Z" p-id="2304"></path><path d="M205.1072 768l102.4 0 0 51.2-102.4 0 0-51.2Z" p-id="2305"></path><path d="M460.8 768l102.4 0 0 51.2-102.4 0 0-51.2Z" p-id="2306"></path><path d="M717.1072 768l102.4 0 0 51.2-102.4 0 0-51.2Z" p-id="2307"></path></svg>