<?xml version="1.0" standalone="no"?><!DOCTYPE svg PUBLIC "-//W3C//DTD SVG 1.1//EN" "http://www.w3.org/Graphics/SVG/1.1/DTD/svg11.dtd"><svg t="1575704038291" class="icon" viewBox="0 0 1024 1024" version="1.1" xmlns="http://www.w3.org/2000/svg" p-id="3582" xmlns:xlink="http://www.w3.org/1999/xlink" width="200" height="200"><defs><style type="text/css"></style></defs><path d="M111 41h796.4v938.6H111z" fill="#FEF0F0" p-id="3583"></path><path d="M832 0H192C121.6 0 64 57.6 64 128v768c0 70.4 57.6 128 128 128h640c70.4 0 128-57.6 128-128V128C960 57.6 902.4 0 832 0z m0 960H192c-69.8 0.6-58.8 11.6-64-64V128c0-70.4-6.4-64 64-64h640c70.4 0 64-6.4 64 64v768c0 70.4 6.4 64-64 64z" fill="#F56C6C" p-id="3584"></path><path d="M520.4 832H224c-18 0-32 14-32 32s14 32 32 32h296.4c17.2 0 32-14 32-32s-14.8-32-32-32zM736 704H224c-18 0-32 14-32 32s14 32 32 32h512c18 0 32-14 32-32s-14-32-32-32zM260.4 576L754 505.6l-493.6 35.2z" fill="#F56C6C" p-id="3585"></path><path d="M468.4 453.2c32 0 58.8-12.2 82-37.2 20.4-23 35.2-53.8 43.6-92.8 7.6-38.4 5.8-69.8-5.8-92.8-12.8-25-35.8-37.8-68.4-37.8-33.2 0-61.4 12.2-83.8 37.2-21.2 23-35.2 53.8-42.2 93.4-7 38.4-5.2 69.8 7 92.8 13.2 25 35.6 37.2 67.6 37.2z m-33.2-130.6c5.8-27.6 12.8-48.6 22.4-64 14-22.4 32.6-34 55.6-34 22.4 0 36.4 11.6 41.6 34.6 3.2 15.4 2.6 37.2-3.2 64-5.2 26.2-12.8 47.4-23 63.4-13.4 23-31.4 34-54.4 34-22.4 0-35.8-10.8-41-34-3.8-15.4-3.2-36.6 2-64z m320-126.8c-33.2-0.6-61.4 10.8-84.4 35.2-21.8 22.4-36.4 53.2-44.8 92.8-7.6 38.4-6.4 69.8 5.2 92.8 12.8 25 35.2 37.8 67.2 38.4s59.6-10.8 82.6-35.2c21.2-23 36.4-53.8 45.4-92.2 2-9.6 3.8-18.6 4.4-27.6l1.2-12.8V275c-0.6-15.4-3.2-28.8-9-40.4-12.2-25.4-35.2-38.2-67.8-38.8z m29.4 130.6c-6.4 26.2-14 47.4-24.4 63.4-14.8 22.4-32.6 33.2-55 33.2-23-0.6-36.4-12.2-41-35.2-3.2-14.8-2-36.4 3.8-63.4 5.8-27.6 13.4-48.6 23.6-64 14-22.4 33.2-33.2 55.6-32.6 23 0.6 37.2 12.2 41 35.2 3.4 15.4 2.2 37.2-3.6 63.4z m-558 124.2l41.6-0.6c14.8-83.8 29.4-167.6 44.2-251.6l-32.6 0.6c-10.2 9-23 17.2-38.4 25.6-15.4 7-29.4 12.2-42.8 15.4l-6.6 38.4c26.8-7 50-18.6 69.8-33.2l-35.2 205.4z" fill="#ED4040" p-id="3586"></path></svg>