<?xml version="1.0" standalone="no"?><!DOCTYPE svg PUBLIC "-//W3C//DTD SVG 1.1//EN" "http://www.w3.org/Graphics/SVG/1.1/DTD/svg11.dtd"><svg t="1575705291831" class="icon" viewBox="0 0 1024 1024" version="1.1" xmlns="http://www.w3.org/2000/svg" p-id="5105" xmlns:xlink="http://www.w3.org/1999/xlink" width="200" height="200"><defs><style type="text/css"></style></defs><path d="M952 761.6v-8c0-17.6-4.8-32-16-46.4-17.6-22.4-40-38.4-64-54.4-46.4-28.8-97.6-48-150.4-64-20.8-6.4-48-19.2-48-38.4 0-17.6 1.6-33.6 14.4-46.4 28.8-35.2 46.4-76.8 57.6-121.6 9.6-40 12.8-80 4.8-121.6-8-41.6-25.6-76.8-56-100.8-28.8-20.8-59.2-32-91.2-32-12.8 0-27.2 1.6-41.6 4.8-24 6.4-44.8 17.6-62.4 33.6 14.4 6.4 28.8 14.4 41.6 25.6 36.8 28.8 59.2 70.4 68.8 123.2 8 43.2 6.4 89.6-4.8 136-12.8 54.4-35.2 97.6-64 134.4-3.2 3.2-4.8 8-6.4 19.2 3.2 3.2 11.2 6.4 22.4 9.6 62.4 19.2 113.6 41.6 158.4 68.8 22.4 14.4 52.8 33.6 75.2 62.4 16 20.8 24 43.2 22.4 68.8v3.2c0 6.4 0 12.8-1.6 19.2h89.6c1.6 0 54.4-38.4 51.2-75.2z" p-id="5106"></path><path d="M777.6 814.4c0-17.6-4.8-32-16-46.4-17.6-22.4-40-38.4-64-54.4-46.4-28.8-97.6-48-150.4-64-20.8-6.4-48-19.2-48-38.4 0-17.6 1.6-33.6 14.4-46.4 28.8-35.2 46.4-76.8 57.6-121.6 9.6-40 12.8-80 4.8-121.6-8-41.6-25.6-76.8-56-100.8-28.8-22.4-59.2-33.6-91.2-33.6-12.8 0-27.2 1.6-41.6 4.8-54.4 12.8-89.6 49.6-107.2 108.8-12.8 41.6-12.8 84.8-3.2 126.4 11.2 54.4 32 84.8 65.6 126.4 1.6 1.6 3.2 3.2 3.2 4.8 11.2 30.4-14.4 78.4-46.4 89.6-24 8-49.6 17.6-73.6 28.8-38.4 16-75.2 35.2-107.2 59.2-20.8 16-40 32-46.4 57.6-3.2 12.8-3.2 25.6-3.2 38.4 0 16 6.4 32 20.8 43.2 9.6 8 32 20.8 32 20.8h603.2s54.4-38.4 51.2-75.2c1.6-1.6 1.6-4.8 1.6-6.4z" p-id="5107"></path></svg>