<?xml version="1.0" standalone="no"?><!DOCTYPE svg PUBLIC "-//W3C//DTD SVG 1.1//EN" "http://www.w3.org/Graphics/SVG/1.1/DTD/svg11.dtd"><svg t="1575705599718" class="icon" viewBox="0 0 1060 1024" version="1.1" xmlns="http://www.w3.org/2000/svg" p-id="5952" xmlns:xlink="http://www.w3.org/1999/xlink" width="207.03125" height="200"><defs><style type="text/css"></style></defs><path d="M876.130873 350.276015H722.090037c-15.870111 0-28.59139 14.232718-28.59139 31.866174s12.847232 31.866175 28.59139 31.866175h154.040836c15.870111 0 28.59139-14.232718 28.59139-31.866175 0-17.507503-12.721279-31.866175-28.59139-31.866174zM904.722263 229.360886c0-17.633456-12.847232-31.866175-28.59139-31.866175H568.553014c-15.744157 0-28.59139 14.232718-28.59139 31.866175s12.847232 31.866175 28.59139 31.866174h307.577859c15.870111 0 28.59139-14.358672 28.59139-31.866174z" p-id="5953"></path><path d="M870.58893 26.828044H241.074539c-96.480197 0-174.949077 82.247478-174.949078 183.387946v57.434687c0 19.018942 15.618204 34.38524 35.015006 34.385239 19.270849 0 35.015006-15.366298 35.015007-34.385239v-57.434687c0-63.102583 47.106519-114.617466 104.919065-114.617466h629.514391c57.812546 0 104.919065 51.514883 104.919065 114.617466v596.262731c0 63.102583-47.106519 114.617466-104.919065 114.617466h-139.808118c-19.270849 0-35.015006 15.366298-35.015006 34.38524 0 19.018942 15.744157 34.38524 35.015006 34.38524h139.934071c96.354244 0 174.823124-82.247478 174.823124-183.387946V210.21599c0-101.140467-78.468881-183.387946-174.949077-183.387946z" p-id="5954"></path><path d="M642.487577 894.142189l106.808364-375.844526c0-9.068635-6.801476-23.55326-22.923493-25.442558-11.461747 0-29.724969 5.41599-32.118081 18.137269L618.052645 779.650677c-32.244034-70.533825-92.701599-136.281427-166.762116-172.807873 52.774416-37.534071 87.159656-98.495449 87.159656-167.265928 0-113.735793-94.213038-206.311439-209.838131-206.311439-115.751046 0-209.964084 92.575646-209.964084 206.311439 0 68.77048 34.38524 129.731857 87.159656 167.265928C94.464945 661.758426 13.728905 782.799508 13.728905 886.710947c0 19.018942 15.744157 34.38524 35.015006 34.38524s35.015006-15.366298 35.015007-34.38524c0-95.094711 109.705289-240.822632 244.853136-240.822632 135.147847 0 244.853137 145.601968 244.853137 240.822632 0 14.862485 9.572448 27.583764 23.049446 32.369988 3.022878 2.015252 6.675523 3.400738 10.957934 3.904551h6.927429c11.461747 0 22.923493-10.957934 25.190652-18.13727l2.015252-7.053382c0.251907-1.259533 0.629766-2.519065 0.881673-3.652645zM328.486101 577.117835c-77.209348 0-139.934071-61.591144-139.934071-137.540959 0-75.823862 62.724723-137.540959 139.934071-137.54096s139.934071 61.717097 139.934071 137.54096c0 75.949815-62.724723 137.540959-139.934071 137.540959z" p-id="5955"></path></svg>